<?xml version="1.0" encoding="utf-8"?>
<!-- Generator: Adobe Illustrator 28.0.0, SVG Export Plug-In . SVG Version: 6.00 Build 0)  -->
<svg version="1.1" id="Layer_1" xmlns="http://www.w3.org/2000/svg" xmlns:xlink="http://www.w3.org/1999/xlink" x="0px" y="0px"
	 viewBox="0 0 1000 193" style="enable-background:new 0 0 1000 193;" xml:space="preserve">
<style type="text/css">
	.st0{fill-rule:evenodd;clip-rule:evenodd;fill:#0B103A;}
</style>
<g>
	<path class="st0" d="M266.1,23.7v135.1h76.2c6,0,10.7,1.5,14,4.4c3.3,3,4.9,6.7,4.9,11.1c0,4.6-1.6,8.3-4.8,11.1
		c-3.2,2.8-7.9,4.2-14,4.2h-90.8c-8.2,0-14-1.8-17.6-5.4c-3.6-3.6-5.4-9.5-5.4-17.6V23.8c0-7.6,1.7-13.3,5.2-17.1
		c3.4-3.8,7.9-5.7,13.5-5.7c5.6,0,10.2,1.9,13.7,5.6C264.4,10.3,266.1,16,266.1,23.7z"/>
	<path class="st0" d="M893.3,23.5l72.3,109.4V22.5c0-7.2,1.5-12.6,4.6-16.1c3.1-3.6,7.2-5.4,12.4-5.4c5.4,0,9.6,1.7,12.8,5.4
		c3.2,3.6,4.6,9,4.6,16.2v145.9c0,16.3-6.7,24.4-20.2,24.4c-3.4,0-6.4-0.5-9.1-1.5c-2.7-0.9-5.2-2.5-7.6-4.6
		c-2.4-2.1-4.6-4.6-6.6-7.5c-2-2.8-4-5.7-6.1-8.7l-70.4-108v108.6c0,7.1-1.6,12.4-4.9,16c-3.4,3.6-7.6,5.4-12.7,5.4
		c-5.3,0-9.6-1.8-12.8-5.5c-3.2-3.7-4.8-9-4.8-16V28.1c0-6.1,0.7-10.8,2-14.3c1.6-3.8,4.3-6.9,8-9.3c3.7-2.4,7.7-3.6,12-3.6
		c3.4,0,6.3,0.5,8.7,1.6c2.4,1.1,4.6,2.6,6.4,4.4c1.8,1.9,3.7,4.2,5.6,7.2C889.3,17.2,891.3,20.2,893.3,23.5z"/>
	<path class="st0" d="M530.9,168.6l-8.9-23.3L511.9,117L484,40.6L456.5,117l-9.9,28.3l-8.9,23.8c-3.4,9.3-6.4,15.6-8.9,18.8
		c-2.4,3.2-6.4,4.9-12,4.9c-4.7,0-8.9-1.7-12.6-5.2c-3.6-3.4-5.4-7.4-5.4-11.8c0-2.6,0.4-5.2,1.3-7.9c0.9-2.8,2.2-6.4,4.2-11.3
		l47.4-120.5c1.4-3.4,3-7.6,4.9-12.4c1.9-4.9,4-8.9,6.1-12.1c2.1-3.2,5-5.8,8.5-7.8c3.5-2,7.8-3,13-3c5.2,0,9.6,1,13.2,3
		c3.5,2,6.3,4.6,8.5,7.7c2.1,3.1,4,6.4,5.4,10.1c1.5,3.6,3.4,8.4,5.6,14.4l48.5,119.7c3.8,9.1,5.7,15.7,5.7,19.9
		c0,4.3-1.7,8.3-5.4,11.8c-3.6,3.6-7.9,5.4-13,5.4c-3,0-5.5-0.5-7.6-1.6c-2.1-1-3.8-2.5-5.3-4.3c-1.4-1.8-3-4.6-4.6-8.3
		C533.4,174.8,532.1,171.4,530.9,168.6z"/>
	<path class="st0" d="M746.9,168.6l-8.9-23.3L727.9,117L700,40.6L672.5,117l-9.9,28.3l-8.9,23.8c-3.4,9.3-6.4,15.6-8.9,18.8
		c-2.4,3.2-6.4,4.9-12,4.9c-4.7,0-8.9-1.7-12.6-5.2c-3.6-3.4-5.4-7.4-5.4-11.8c0-2.6,0.4-5.2,1.3-7.9c0.9-2.8,2.2-6.4,4.2-11.3
		l47.4-120.5c1.4-3.4,3-7.6,4.9-12.4c1.9-4.9,4-8.9,6.1-12.1c2.1-3.2,5-5.8,8.5-7.8c3.5-2,7.8-3,13-3c5.3,0,9.6,1,13.2,3
		c3.5,2,6.3,4.6,8.5,7.7c2.1,3.1,4,6.4,5.4,10.1c1.5,3.6,3.4,8.4,5.6,14.4l48.5,119.7c3.8,9.1,5.7,15.7,5.7,19.9
		c0,4.3-1.7,8.3-5.4,11.8c-3.6,3.6-7.9,5.4-13,5.4c-3,0-5.5-0.5-7.6-1.6c-2.1-1-3.8-2.5-5.3-4.3c-1.4-1.8-3-4.6-4.6-8.3
		C749.5,174.8,748.1,171.4,746.9,168.6z"/>
	<path class="st0" d="M132,168.6l-8.9-23.3L113,117L85.1,40.6L57.6,117l-9.9,28.3l-8.9,23.8c-3.4,9.3-6.4,15.6-8.9,18.8
		c-2.4,3.2-6.4,4.9-12,4.9c-4.7,0-8.9-1.7-12.6-5.2c-3.6-3.4-5.4-7.4-5.4-11.8c0-2.6,0.4-5.2,1.3-7.9c0.9-2.8,2.2-6.4,4.2-11.3
		L52.8,36.3c1.4-3.4,3-7.6,4.9-12.4c1.9-4.9,4-8.9,6.1-12.1C66,8.5,68.8,6,72.3,4s7.8-3,13-3c5.3,0,9.6,1,13.2,3
		c3.5,2,6.3,4.6,8.5,7.7s4,6.4,5.4,10.1c1.5,3.6,3.4,8.4,5.6,14.4l48.5,119.7c3.8,9.1,5.7,15.7,5.7,19.9c0,4.3-1.7,8.3-5.4,11.8
		c-3.6,3.6-7.9,5.4-13,5.4c-3,0-5.5-0.5-7.6-1.6c-2.1-1-3.8-2.5-5.3-4.3c-1.4-1.8-3-4.6-4.6-8.3C134.6,174.8,133.2,171.4,132,168.6z
		"/>
</g>
</svg>
